<svg width="23" height="21" viewBox="0 0 23 21" fill="none" xmlns="http://www.w3.org/2000/svg">
<path d="M2.35124 0.025949C2.03553 0.103795 2.11771 -0.0172989 0.876489 2.17105L0.0158547 3.68472L0.00288027 4.88269C-0.00576932 5.84712 0.00288027 6.13256 0.0591026 6.3661C0.214795 7.04077 0.699172 7.66354 1.29599 7.96195C1.46899 8.04844 1.63333 8.11764 1.6636 8.11764C1.7155 8.11764 1.72415 9.04315 1.72415 13.9129V19.7081H1.07975C0.487257 19.7081 0.42671 19.7167 0.292642 19.8076C-0.113889 20.08 -0.0879404 20.6422 0.344539 20.8974C0.491582 20.9839 0.582403 20.9839 10.936 20.9969C18.5 21.0055 21.4409 20.9969 21.6052 20.9623C22.081 20.8585 22.2929 20.3179 22.0031 19.946C21.8517 19.7557 21.7566 19.7297 21.0992 19.7081L20.4721 19.6865L20.4635 13.9129L20.4505 8.13926L20.8008 7.97492C21.2376 7.76733 21.6139 7.40405 21.8431 6.96724C22.1156 6.45259 22.1415 6.245 22.1285 4.88269L22.1156 3.68472L21.2549 2.17105C20.1348 0.194616 20.1348 0.194616 19.9661 0.0951457C19.8234 0.00864983 19.7412 0.00864983 11.1522 2.37702e-07C6.38195 2.37702e-07 2.42477 0.00864983 2.35124 0.025949ZM19.3434 1.44448C19.4774 1.6564 20.364 3.2263 20.364 3.25225C20.364 3.26522 16.1819 3.27387 11.0657 3.27387C5.9538 3.27387 1.7674 3.26522 1.7674 3.25225C1.7674 3.2263 2.65398 1.6564 2.78805 1.44448L2.89184 1.28446H11.0657H19.2396L19.3434 1.44448ZM3.45407 5.32815C3.45407 5.91199 3.43677 6.12391 3.3892 6.245C3.21188 6.66451 2.84427 6.91535 2.39882 6.91967C1.94039 6.91967 1.59441 6.69911 1.39546 6.2796C1.30032 6.07634 1.29167 6.01146 1.29167 5.31517V4.57131H2.37287H3.45407V5.32815ZM6.9485 5.3368C6.9312 6.18013 6.90525 6.29258 6.65874 6.57369C6.24789 7.03644 5.46077 7.03644 5.04992 6.57369C4.8034 6.29258 4.77745 6.18013 4.76016 5.3368L4.74286 4.57131H5.85433H6.9658L6.9485 5.3368ZM10.4083 5.35842C10.3954 6.07201 10.3867 6.16716 10.3002 6.32285C10.0883 6.71208 9.74665 6.91967 9.30984 6.91967C8.86439 6.91535 8.49678 6.66451 8.31946 6.245C8.27189 6.12391 8.25459 5.91199 8.25459 5.32815V4.57131H9.34011H10.4256L10.4083 5.35842ZM13.8768 5.32815C13.8768 5.91199 13.8595 6.12391 13.812 6.245C13.6346 6.66451 13.267 6.91535 12.8216 6.91967C12.3631 6.91967 12.0172 6.69911 11.8182 6.2796C11.7231 6.07634 11.7144 6.01146 11.7144 5.31517V4.57131H12.7956H13.8768V5.32815ZM17.3713 5.3368C17.354 6.18013 17.328 6.29258 17.0815 6.57369C16.6706 7.03644 15.8835 7.03644 15.4727 6.57369C15.2262 6.29258 15.2002 6.18013 15.1829 5.3368L15.1656 4.57131H16.2771H17.3886L17.3713 5.3368ZM20.8311 5.35842C20.8181 6.07201 20.8095 6.16716 20.723 6.32285C20.5111 6.71208 20.1694 6.91967 19.7326 6.91967C19.2871 6.91535 18.9195 6.66451 18.7422 6.245C18.6946 6.12391 18.6773 5.91199 18.6773 5.32815V4.57131H19.7629H20.8484L20.8311 5.35842ZM4.35362 7.68516C5.15371 8.39443 6.55495 8.39443 7.35503 7.68516C7.46315 7.59001 7.57127 7.51217 7.58857 7.51217C7.60587 7.51217 7.67074 7.55974 7.73129 7.61596C7.91293 7.78896 8.34541 8.02682 8.64382 8.12196C9.01143 8.23873 9.60393 8.24738 9.96288 8.14359C10.3045 8.03979 10.5165 7.93167 10.8149 7.70246L11.0614 7.50784L11.2906 7.68516C12.095 8.32523 13.1589 8.39875 14.0282 7.87978C14.1709 7.79328 14.3353 7.67651 14.4001 7.61596C14.4607 7.55974 14.5255 7.51217 14.5428 7.51217C14.5601 7.51217 14.6683 7.59001 14.7764 7.68516C15.5765 8.39443 16.9777 8.39443 17.7778 7.68516C17.8859 7.59001 17.9897 7.51217 18.0027 7.51217C18.02 7.51217 18.1324 7.59434 18.2578 7.69813C18.4481 7.85383 18.7898 8.03114 19.0796 8.13061C19.1488 8.15656 19.1531 8.47227 19.1531 13.9345V19.7081H14.8715H10.59L10.5813 14.9335C10.5684 10.1849 10.5684 10.1546 10.4775 10.0378C10.43 9.97298 10.3348 9.87783 10.2699 9.83026C10.1532 9.73944 10.1099 9.73944 7.46315 9.73944H4.77313L4.63041 9.83891C4.31903 10.0638 4.34065 9.67889 4.32768 14.9638L4.31903 19.7124L3.67896 19.6994L3.04321 19.6865L3.03024 13.9258L3.02159 8.16954L3.37622 7.99655C3.57516 7.9014 3.81303 7.75436 3.90817 7.66786C4.00332 7.58569 4.09846 7.51649 4.11576 7.51217C4.13739 7.51217 4.2455 7.59001 4.35362 7.68516ZM9.28389 15.3487L9.27092 19.6865H7.4545H5.63809L5.62511 15.4049C5.62079 13.0479 5.62511 11.0974 5.63809 11.0672C5.65106 11.0282 6.06192 11.0153 7.47613 11.0153H9.29254L9.28389 15.3487Z" fill="#BDBDBD"/>
<path d="M12.8389 9.81316C12.7264 9.87371 12.6096 9.97318 12.5577 10.064C12.4713 10.211 12.4713 10.2802 12.4713 13.3508V16.4863L12.5707 16.642C12.7567 16.9448 12.7048 16.9404 15.1872 16.9404H17.4102L17.5529 16.841C17.6307 16.7891 17.7302 16.6766 17.7778 16.5944C17.8513 16.4517 17.8556 16.296 17.847 13.2989C17.834 10.2024 17.834 10.1548 17.7432 10.0381C17.6956 9.97318 17.6005 9.87804 17.5356 9.83046C17.4188 9.74397 17.3626 9.73964 15.2261 9.72667L13.0335 9.71802L12.8389 9.81316ZM16.5582 13.3292V15.643H15.1526H13.7471V13.3595C13.7471 12.101 13.76 11.0587 13.7773 11.0457C13.7903 11.0284 14.4261 11.0155 15.1829 11.0155H16.5582V13.3292Z" fill="#BDBDBD"/>
</svg>
