<svg width="14" height="21" viewBox="0 0 14 21" fill="none" xmlns="http://www.w3.org/2000/svg">
<path d="M5.71666 0.0938939C3.55529 0.529024 1.65235 2.03966 0.689132 4.1168C0.140959 5.28262 0 5.95584 0 7.35975C0 8.77187 0.140959 9.44509 0.689132 10.6027C1.26863 11.8342 6.6094 20.7585 6.85216 20.898C7.32203 21.1772 7.28287 21.2429 10.2195 16.1034C13.1796 10.9475 13.5634 10.2004 13.8218 9.207C14.0646 8.26285 14.0567 6.44844 13.814 5.5125C13.1483 2.95098 11.1671 0.873844 8.75511 0.217044C7.92502 -0.0128362 6.53892 -0.0703062 5.71666 0.0938939ZM8.15212 1.3336C11.7544 2.10534 13.8296 6.18572 12.42 9.6996C12.2164 10.2168 7.16541 19.1001 7.07927 19.1001C7.00879 19.1001 2.16137 10.9147 1.77765 10.1429C0.806598 8.20538 0.939725 5.7588 2.11438 3.9526C3.46915 1.85904 5.84196 0.832794 8.15212 1.3336Z" fill="#BDBDBD"/>
<path d="M6.06407 4.1C5.32423 4.25598 4.76267 4.53673 4.18329 5.03586C2.60557 6.42405 2.60557 8.57652 4.18329 9.96471C5.76992 11.3451 8.23008 11.3451 9.81671 9.96471C11.3944 8.57652 11.3944 6.42405 9.81671 5.03586C8.80056 4.15459 7.42786 3.81145 6.06407 4.1ZM8.239 5.4414C10.1376 6.33826 10.1287 8.65451 8.239 9.56697C7.81114 9.77754 7.67744 9.80093 7 9.80093C6.17103 9.80093 5.77883 9.67615 5.19053 9.22382C4.51309 8.7013 4.16546 7.67966 4.40613 6.89977C4.62006 6.19788 5.44011 5.45699 6.23343 5.23863C6.38496 5.19963 6.79499 5.17624 7.14262 5.19183C7.63287 5.20743 7.87354 5.26202 8.239 5.4414Z" fill="#BDBDBD"/>
</svg>
