<svg width="20" height="15" viewBox="0 0 20 15" fill="none" xmlns="http://www.w3.org/2000/svg">
<g clip-path="url(#clip0_303_5)">
<path d="M0.605226 0.206417C-0.1085 0.638015 -0.179088 1.38862 0.330716 3.2839C1.46013 7.44038 3.85228 11.5875 6.22091 13.4734C7.5464 14.5336 8.6366 14.9558 10.0562 14.9558C11.1307 14.9652 11.5621 14.8245 11.9464 14.3459L12.1739 14.0645L12.1974 12.5163C12.2131 11.6719 12.2523 10.9776 12.2837 10.9776C12.3856 10.9776 13.0052 11.5312 13.4288 12.0003C13.6405 12.2349 14.1817 12.9104 14.6366 13.4827C15.2248 14.2521 15.5621 14.6087 15.868 14.7869C16.2758 15.0215 16.2993 15.0309 17.7739 14.9933C19.1386 14.9652 19.2797 14.9464 19.4837 14.7682C20.6288 13.7548 20.0954 12.2724 17.3817 8.87591L16.668 7.98456L17.4837 6.50212C18.4484 4.76634 18.9189 3.79994 19.3268 2.76786C19.5699 2.13923 19.617 1.91404 19.6248 1.38862C19.6248 0.816283 19.6013 0.741223 19.3895 0.469129C19.0444 0.0375305 18.7699 -0.0187649 17.1778 0.0187653L15.7582 0.046913L15.4288 0.32839C15.068 0.638015 15.0837 0.600484 14.417 2.25182C14.1582 2.89921 13.7503 3.79994 13.5072 4.25969C13.0601 5.1135 12.3699 6.19249 12.2758 6.19249C12.2444 6.19249 12.2131 5.00091 12.1974 3.53723C12.1739 0.600484 12.166 0.562954 11.6405 0.187652C11.4131 0.0187653 11.2327 2.15005e-07 9.48366 2.15005e-07C7.41307 2.15005e-07 7.20915 0.0375305 6.88758 0.516041C6.53464 1.06023 6.57385 1.58565 7.0366 2.41132C7.20915 2.71156 7.36601 3.07748 7.38954 3.23699C7.41307 3.38711 7.42875 4.36289 7.41307 5.39498L7.38954 7.27149L6.86405 6.33323C6.25228 5.22609 5.52287 3.51846 5.11503 2.2049C4.44836 0.0656782 4.36993 2.15005e-07 2.30719 2.15005e-07C1.06013 2.15005e-07 0.926794 0.0187653 0.605226 0.206417ZM3.56209 1.6138C3.6013 1.67948 3.77385 2.17676 3.9464 2.72094C4.58954 4.82264 5.70326 7.21519 6.51111 8.22851C7.34248 9.27936 8.15817 9.40133 8.53464 8.51937C8.66797 8.20036 8.68366 7.94703 8.68366 5.68584C8.68366 3.0118 8.62091 2.46762 8.22091 1.79207L8.04836 1.50121H9.49934H10.9503L10.9739 4.33475C10.9974 7.48729 11.0209 7.62803 11.515 7.93765C12.4797 8.52875 13.9307 6.75545 15.4444 3.14316C15.7895 2.31749 16.0954 1.60442 16.1268 1.56689C16.1582 1.52936 16.6915 1.51059 17.3033 1.51998L18.4248 1.54812L17.9699 2.62712C17.7111 3.21822 17.1542 4.35351 16.7229 5.14165C15.4131 7.5342 15.4288 7.49667 15.4288 7.97518C15.4288 8.51937 15.5386 8.72579 16.5739 10.0393C17.0366 10.6304 17.5935 11.3717 17.8052 11.6813C18.2209 12.2724 18.8013 13.2951 18.8013 13.4358C18.8013 13.4734 18.268 13.5109 17.617 13.5109H16.4248L15.1229 11.9346C13.515 9.97367 12.8954 9.47639 12.119 9.47639C11.9542 9.47639 11.6954 9.54207 11.5386 9.61713C11.0993 9.83293 11.0131 10.2082 10.9739 11.944L10.9425 13.4171L10.7464 13.4734C10.1346 13.661 8.56601 13.3045 7.70326 12.7884C6.54248 12.0847 5.05228 10.4334 4.04052 8.72579C2.81699 6.66162 1.57777 3.55599 1.27189 1.80145L1.21699 1.50121H2.35425C3.16993 1.50121 3.50719 1.53874 3.56209 1.6138Z" fill="#BDBDBD"/>
</g>
<defs>
<clipPath id="clip0_303_5">
<rect width="20" height="15" fill="white"/>
</clipPath>
</defs>
</svg>
