<svg width="16" height="16" viewBox="0 0 16 16" fill="none" xmlns="http://www.w3.org/2000/svg">
<path d="M2.79399 0.046876C2.40649 0.131251 2.33461 0.187501 1.32524 1.2C0.443987 2.07813 0.375237 2.15625 0.272112 2.375C0.100237 2.7375 0.0596121 2.93125 0.0408621 3.44375C0.0221121 3.95938 0.0627371 4.3 0.218987 4.89375C1.15961 8.46563 5.36586 13.1656 9.39086 15.1406C10.5846 15.725 11.4877 15.9813 12.3752 15.9844C12.919 15.9844 13.194 15.9281 13.5721 15.7438C13.8159 15.625 13.8784 15.5656 14.7565 14.6906C15.7377 13.7094 15.794 13.6375 15.919 13.2219C15.9846 13.0031 15.9846 12.5906 15.919 12.3719C15.8065 11.9969 15.7596 11.9406 14.519 10.6938C13.8659 10.0344 13.244 9.43438 13.1409 9.35938C12.5221 8.91875 11.7252 8.98125 11.2065 9.50938C11.0502 9.66875 10.9877 9.7625 10.8815 10.0156C10.8065 10.1844 10.7096 10.375 10.6627 10.4375C10.3627 10.8438 9.78774 11.1 9.29711 11.05C8.56586 10.9719 7.47524 10.3094 6.55024 9.38438C5.43149 8.26563 4.77211 6.97813 4.93149 6.22813C5.00649 5.87813 5.25336 5.5125 5.54399 5.31875C5.61274 5.26875 5.76274 5.19063 5.87524 5.14375C6.20024 5.00625 6.27836 4.95938 6.43149 4.82813C6.95024 4.375 7.06274 3.525 6.68461 2.92188C6.57524 2.74375 4.41899 0.565626 4.15649 0.362501C3.94711 0.203126 3.67211 0.078126 3.42524 0.0343761C3.19086 -0.00937366 3.03461 -0.00624943 2.79399 0.046876Z" fill="#BDBDBD"/>
</svg>
