<svg viewBox="0 0 16 16" fill="none" xmlns="http://www.w3.org/2000/svg">
	<path d="M2.98452 0.0218786C2.13452 0.143753 1.37515 0.725003 1.03765 1.51875C0.831399 2.00625 0.843899 1.58125 0.843897 8C0.843896 14.4188 0.831396 13.9938 1.03765 14.4813C1.2814 15.0531 1.7189 15.5031 2.28765 15.7625C2.75015 15.9781 2.7564 15.9781 4.18765 15.9906C5.07827 16 5.52202 15.9938 5.60014 15.9719C6.04389 15.8375 6.18139 15.2344 5.83764 14.9156C5.66889 14.7563 5.61577 14.75 4.39702 14.75C3.75327 14.75 3.18452 14.7375 3.09077 14.7188C2.72202 14.65 2.38452 14.3844 2.20952 14.0313L2.10952 13.8281L2.10952 8L2.10952 2.17188L2.20952 1.96875C2.38452 1.61563 2.72202 1.35 3.09077 1.28125C3.20015 1.2625 4.6439 1.25 7.17202 1.25C9.70015 1.25 11.1439 1.26251 11.2533 1.28125C11.622 1.35001 11.9595 1.61563 12.1345 1.96875L12.2345 2.17188L12.2501 4.32813C12.2626 5.85313 12.2751 6.50626 12.3033 6.56563C12.5283 7.06876 13.1939 7.10313 13.4408 6.61875C13.497 6.50626 13.5001 6.40313 13.5001 4.34376C13.5001 2.47188 13.4939 2.15626 13.4501 1.96251C13.2408 1.04376 12.5845 0.35938 11.6408 0.0750055C11.4658 0.0218801 11.2095 0.0187549 7.26577 0.0125047C4.96265 0.00937915 3.03765 0.0156282 2.98452 0.0218786Z" fill="black"/>
	<path d="M3.6875 3.81875C3.6125 3.85938 3.50625 3.94375 3.45625 4.00938C3.36563 4.12188 3.35938 4.15 3.35938 4.375C3.35938 4.6 3.36563 4.62813 3.45625 4.74063C3.50625 4.80625 3.6125 4.89063 3.6875 4.92813L3.825 5L7.1625 5C10.1063 5 10.5156 4.99375 10.6188 4.95313C11.1281 4.7375 11.1281 4.0125 10.6188 3.79688C10.5156 3.75625 10.1063 3.75 7.1625 3.75L3.825 3.75L3.6875 3.81875Z" fill="black"/>
	<path d="M3.6875 6.31875C3.6125 6.35938 3.50625 6.44375 3.45625 6.50938C3.36563 6.62188 3.35938 6.65 3.35938 6.875C3.35938 7.1 3.36563 7.12813 3.45625 7.24063C3.50625 7.30625 3.6125 7.39063 3.6875 7.42813L3.825 7.5L7.1625 7.5C10.1063 7.5 10.5156 7.49375 10.6188 7.45313C11.1281 7.2375 11.1281 6.5125 10.6188 6.29688C10.5156 6.25625 10.1063 6.25 7.1625 6.25L3.825 6.25L3.6875 6.31875Z" fill="black"/>
	<path d="M12.8905 8.54688C12.6687 8.59688 12.4437 8.69376 12.2499 8.82188C12.053 8.95 8.50929 12.4906 8.43741 12.625C8.40616 12.6875 8.20929 13.3 7.99991 13.9844C7.65616 15.1156 7.62179 15.2531 7.63116 15.4281C7.64054 15.5875 7.65929 15.6438 7.73741 15.7406C7.87804 15.9156 8.07179 16.0094 8.26554 15.9875C8.40929 15.975 10.4312 15.4281 10.9062 15.275L11.1093 15.2094L12.8999 13.425C14.7968 11.5375 14.9249 11.3906 15.0655 10.9781C15.128 10.8 15.1405 10.7031 15.1405 10.375C15.1405 9.90313 15.078 9.68438 14.8405 9.32813C14.4155 8.69376 13.6343 8.38126 12.8905 8.54688ZM13.5249 9.79688C13.9499 9.97501 14.0405 10.525 13.6968 10.85L13.6062 10.9375L13.1718 10.5L12.7374 10.0656L12.828 9.96563C13.0155 9.76875 13.2905 9.70001 13.5249 9.79688ZM11.578 12.9688L10.4218 14.1219L9.79991 14.2938C9.45616 14.3906 9.17179 14.4625 9.16866 14.4594C9.16554 14.4563 9.24679 14.1781 9.34991 13.8438L9.53429 13.2344L10.6968 12.0875L11.8593 10.9438L12.2968 11.3781L12.7343 11.8125L11.578 12.9688Z" fill="black"/>
	<path d="M3.6875 8.81875C3.6125 8.85938 3.50625 8.94375 3.45625 9.00937C3.36563 9.12187 3.35938 9.15 3.35938 9.375C3.35938 9.6 3.36563 9.62812 3.45625 9.74063C3.50625 9.80625 3.6125 9.89063 3.6875 9.92813L3.825 10L5.90625 10C7.8625 10 7.99063 9.99375 8.10938 9.94063C8.6 9.7125 8.6 9.0375 8.10938 8.80938C7.99063 8.75625 7.8625 8.75 5.90625 8.75L3.825 8.75L3.6875 8.81875Z" fill="black"/>
</svg>
