<svg width="20" height="20" viewBox="0 0 20 20" fill="none" xmlns="http://www.w3.org/2000/svg">
<g clip-path="url(#clip0_99_52)">
<path d="M4.29688 0.0585957C3.17578 0.226564 2.28906 0.671877 1.48047 1.48047C0.648438 2.3125 0.195312 3.24219 0.0429688 4.41016C-0.015625 4.86719 -0.015625 15.1328 0.0429688 15.5898C0.195312 16.7578 0.648438 17.6875 1.48047 18.5195C2.3125 19.3516 3.24219 19.8047 4.41016 19.957C4.86719 20.0156 15.1328 20.0156 15.5898 19.957C16.7578 19.8047 17.6875 19.3516 18.5195 18.5195C19.3516 17.6875 19.8047 16.7578 19.957 15.5898C20.0156 15.1328 20.0156 4.86719 19.957 4.41016C19.8047 3.24219 19.3516 2.3125 18.5195 1.48047C17.6875 0.648439 16.7578 0.195314 15.5898 0.0429707C15.0898 -0.0234356 4.73828 -0.00781059 4.29688 0.0585957ZM16.0039 1.82422C16.4453 1.97656 16.543 2.02735 16.9062 2.27735C17.4844 2.67578 17.9414 3.29688 18.1719 3.9961L18.3008 4.39453V10C18.3008 15.3633 18.2969 15.6172 18.2266 15.8398C17.9648 16.6875 17.5117 17.3164 16.8438 17.7695C16.5547 17.9648 16.3047 18.0781 15.8984 18.207L15.6055 18.3008H10H4.39453L3.99609 18.1719C2.90234 17.8125 2.13672 17.0117 1.77344 15.8398C1.70312 15.6172 1.69922 15.3633 1.69922 10C1.69922 4.63672 1.70312 4.38281 1.77344 4.16016C2.05078 3.26953 2.53516 2.6211 3.25781 2.16797C3.5625 1.97656 4.08594 1.77344 4.41016 1.71875C4.50781 1.70313 7.07812 1.69141 10.1172 1.69531L15.6445 1.69922L16.0039 1.82422Z" fill="#BDBDBD"/>
<path d="M15.1563 3.375C14.8789 3.4375 14.7188 3.52343 14.5313 3.71484C14.2773 3.97656 14.1992 4.18359 14.1992 4.58984C14.1992 4.89453 14.2148 4.96875 14.3047 5.13672C14.5195 5.54297 14.8828 5.78125 15.3359 5.8125C15.668 5.83203 15.8438 5.78516 16.1211 5.59766C16.8985 5.07422 16.8086 3.88281 15.9649 3.48046C15.6758 3.34375 15.4453 3.3125 15.1563 3.375Z" fill="#BDBDBD"/>
<path d="M9.35938 5.04297C7.47266 5.30469 5.86328 6.61719 5.27734 8.38281C5.07813 8.98438 5.02344 9.33203 5.02344 10C5.02344 10.668 5.07813 11.0156 5.27734 11.6211C5.75 13.0352 6.96875 14.25 8.39063 14.7266C8.98438 14.9219 9.33594 14.9766 10 14.9766C10.6641 14.9766 11.0156 14.9219 11.6094 14.7266C13.0313 14.25 14.25 13.0352 14.7227 11.6211C14.9219 11.0156 14.9766 10.668 14.9766 10C14.9766 9.125 14.8086 8.41016 14.4297 7.69531C13.707 6.33984 12.4649 5.40625 10.957 5.09766C10.582 5.01953 9.73048 4.98828 9.35938 5.04297ZM11.0039 6.83203C11.4219 6.96875 11.5352 7.02344 11.8555 7.23828C12.5117 7.67969 12.9531 8.29297 13.207 9.10156C13.2852 9.35547 13.3008 9.47656 13.3008 10C13.3008 10.6445 13.2539 10.8828 13.0234 11.3945C12.7344 12.0508 12.0508 12.7344 11.3906 13.0273C10.8828 13.2539 10.6445 13.3008 10 13.3008C9.35548 13.3008 9.11719 13.2539 8.60938 13.0273C7.94922 12.7344 7.26563 12.0508 6.97657 11.3945C6.7461 10.8828 6.69922 10.6445 6.69922 10C6.69922 9.47656 6.71485 9.35547 6.79297 9.10156C6.92578 8.67969 7.04297 8.43359 7.26563 8.10938C7.70704 7.46875 8.32422 7.02734 9.08204 6.80469C9.46876 6.69141 9.52735 6.68359 10.1172 6.69922C10.582 6.71094 10.6875 6.72656 11.0039 6.83203Z" fill="#BDBDBD"/>
</g>
<defs>
<clipPath id="clip0_99_52">
<rect width="20" height="20" fill="white"/>
</clipPath>
</defs>
</svg>
