<svg width="29" height="20" viewBox="0 0 29 20" fill="none" xmlns="http://www.w3.org/2000/svg">
<path d="M1.70671 0.143037C1.15196 0.320753 0.314171 1.17601 0.144349 1.73137C-0.0481163 2.3867 -0.0481163 17.6036 0.144349 18.2589C0.325493 18.8587 1.16328 19.6807 1.77464 19.8584C2.45393 20.0472 26.5461 20.0472 27.2254 19.8584C27.8367 19.6807 28.6745 18.8587 28.8557 18.2589C29.0481 17.6036 29.0481 2.3867 28.8557 1.73137C28.6745 1.13158 27.8367 0.309645 27.2254 0.13193C26.5914 -0.0457861 2.30675 -0.0457861 1.70671 0.143037ZM21.0665 6.56302C18.2021 9.35094 15.8359 11.5502 15.5869 11.6835C15.2925 11.8279 14.9189 11.9056 14.5 11.9056C14.0811 11.9056 13.7075 11.8279 13.4131 11.6835C13.1641 11.5502 10.7979 9.35094 7.93354 6.56302L2.89547 1.67584H14.5H26.1045L21.0665 6.56302ZM5.35224 13.5717L1.70671 17.1593V9.99516V2.83099L5.35224 6.41863L9.00908 9.99516L5.35224 13.5717ZM27.2933 10.0174V17.1593L23.6478 13.5828L19.9909 9.99516L23.6138 6.44084C25.6064 4.48597 27.248 2.88652 27.2593 2.88652C27.282 2.88652 27.2933 6.09652 27.2933 10.0174ZM12.6093 13.1607C13.8094 13.7383 15.1906 13.7383 16.3907 13.1607C16.719 12.9941 17.387 12.4943 17.8851 12.0389L18.7795 11.217L22.4364 14.7602L26.1045 18.3145H14.5H2.89547L6.56363 14.7602L10.2205 11.217L11.1149 12.0389C11.613 12.4943 12.281 12.9941 12.6093 13.1607Z" fill="#BDBDBD"/>
</svg>
