<svg width="20" height="21" viewBox="0 0 20 21" fill="none" xmlns="http://www.w3.org/2000/svg">
<path d="M3.46985 0.0507294C2.98992 0.215058 2.65947 0.477983 1.73108 1.44752C0.251939 2.98399 -0.00769711 3.51805 0.000170639 4.93949C0.00803839 6.35271 0.362087 7.64269 1.30622 9.63106C2.29755 11.7345 3.56426 13.5421 5.31877 15.3825C7.12049 17.2723 8.69404 18.4719 10.8577 19.5976C13.6822 21.0683 15.7829 21.3805 17.1597 20.5424C17.3564 20.4192 17.9937 19.8112 18.5759 19.1867C19.7718 17.8968 20 17.5106 20 16.7711C20 15.9659 19.7876 15.6537 18.0016 13.805C16.5382 12.2932 16.373 12.1453 15.9796 12.022C15.4446 11.8577 15.24 11.8577 14.7522 12.0303C14.4454 12.1371 14.1779 12.3589 13.4147 13.1395C12.8954 13.6735 12.4234 14.109 12.3683 14.109C12.3132 14.109 12.0221 13.9611 11.7231 13.7803C9.93714 12.6876 7.79711 10.4445 6.80578 8.62044L6.4596 7.996L7.42733 6.96894C8.46587 5.85973 8.66257 5.51464 8.66257 4.7916C8.66257 4.0932 8.36359 3.66595 6.7507 1.98159C5.81444 1.01205 5.10634 0.338304 4.89391 0.223274C4.51626 0.0260802 3.79243 -0.0643003 3.46985 0.0507294ZM4.39824 1.15994C4.51626 1.22568 5.27157 1.97337 6.08194 2.82788C7.69483 4.53689 7.78925 4.68478 7.52174 5.25993C7.45093 5.41604 6.95526 5.99941 6.41239 6.54169C5.46039 7.51123 5.43679 7.54409 5.43679 7.88097C5.43679 8.3 5.90885 9.26132 6.60122 10.2884C7.18343 11.1429 9.22118 13.2791 10.1024 13.9611C11.0308 14.6759 12.0929 15.2593 12.4784 15.2593C12.7538 15.2593 12.8561 15.1854 13.7687 14.2405C14.8545 13.1148 15.1928 12.893 15.6177 13.0409C15.7829 13.0902 16.4123 13.6982 17.4194 14.7499C18.9457 16.3521 18.9693 16.3849 18.9693 16.73C18.9693 16.919 18.93 17.1573 18.8828 17.2559C18.8356 17.3545 18.332 17.9296 17.7577 18.5294C16.908 19.425 16.6562 19.6469 16.31 19.7783C15.24 20.1974 13.4619 19.7948 11.2511 18.6198C9.32346 17.601 7.65549 16.3356 6.10555 14.7252C3.14727 11.6441 1.03085 7.56874 1.02298 4.94771C1.02298 3.86314 1.14099 3.61665 2.31329 2.37597C2.84043 1.80904 3.3833 1.28319 3.50919 1.20103C3.79243 1.01205 4.10714 1.00383 4.39824 1.15994Z" fill="#BDBDBD"/>
</svg>
