<svg width="24" height="20" viewBox="0 0 24 20" fill="none" xmlns="http://www.w3.org/2000/svg">
<path d="M11.4468 3.41816C-0.158734 7.1065 0.291603 6.93516 0.0570525 7.66561C0.000760287 7.84597 -0.0180038 8.14356 0.0195244 8.32392C0.150873 8.99125 0.432334 9.17161 3.28447 10.362C4.74807 10.9752 5.96773 11.4982 6.01464 11.5343C6.05217 11.5614 6.43683 13.1936 6.87779 15.1505C7.40318 17.4591 7.74094 18.7848 7.85352 18.929C7.94734 19.0553 8.13498 19.1635 8.27571 19.1815C8.5947 19.2176 8.89493 19.0282 11.1935 17.3689L12.8823 16.1425L13.3045 16.4762C13.539 16.6565 14.5523 17.4591 15.5562 18.2527C16.56 19.0463 17.5358 19.7677 17.714 19.8489C18.3426 20.1645 19.0557 19.9751 19.5154 19.3799C19.628 19.2266 20.4067 16.2237 21.8421 10.362C23.0243 5.52836 24 1.47028 24 1.35304C24 0.66768 23.2588 -0.017685 22.5364 0.000350952C22.33 0.00936891 17.4607 1.50635 11.4468 3.41816ZM22.5458 1.54242C22.5176 1.65965 21.5701 5.53737 20.4348 10.1726C19.2996 14.8078 18.3614 18.6134 18.3426 18.6224C18.3239 18.6405 16.6726 17.3689 14.6743 15.7998L11.0434 12.9411L11.6908 12.3099C14.2615 9.7668 18.4552 5.5013 18.549 5.33898C18.7742 4.92415 18.4177 4.41013 17.9111 4.41013C17.7422 4.41013 9.77684 8.57643 6.90594 10.1636C6.662 10.2989 6.58695 10.2718 4.32588 9.32492C3.04992 8.79286 1.84902 8.28785 1.68014 8.19767L1.35177 8.04437L2.8529 7.57543C3.66913 7.32293 8.41644 5.81693 13.3983 4.23879C18.3802 2.65163 22.4801 1.35304 22.527 1.35304C22.5645 1.34403 22.5739 1.4342 22.5458 1.54242ZM13.1919 8.81991C12.7134 9.3159 11.6532 10.38 10.8464 11.1916L9.37341 12.6706L8.93246 14.1766C8.68852 15.0062 8.47274 15.6645 8.46335 15.6555C8.42583 15.6195 7.48762 11.4171 7.50639 11.399C7.57206 11.354 14.0081 7.92713 14.0363 7.92713C14.055 7.92713 13.6798 8.33294 13.1919 8.81991ZM11.2311 14.8259C11.4844 15.0243 11.6908 15.2136 11.6814 15.2497C11.672 15.2858 11.2029 15.6375 10.6494 16.0433C10.0114 16.5032 9.64549 16.7196 9.67364 16.6114C9.70178 16.5212 9.86128 15.9982 10.0208 15.4571C10.1803 14.907 10.3304 14.411 10.3585 14.3389C10.4054 14.2036 10.4242 14.2126 11.2311 14.8259Z" fill="#BDBDBD"/>
</svg>
